<mxfile host="Electron" agent="Mozilla/5.0 (Windows NT 10.0; Win64; x64) AppleWebKit/537.36 (KHTML, like Gecko) draw.io/26.0.4 Chrome/128.0.6613.186 Electron/32.2.5 Safari/537.36" version="26.0.4">
  <diagram name="Seite-1" id="2_PFGbZ4jDWjoBrt2Cnf">
    <mxGraphModel dx="1366" dy="804" grid="1" gridSize="10" guides="1" tooltips="1" connect="1" arrows="1" fold="1" page="1" pageScale="1" pageWidth="827" pageHeight="1169" math="0" shadow="0">
      <root>
        <mxCell id="0" />
        <mxCell id="1" parent="0" />
        <mxCell id="XUTKUhy3H7NS5KbUsb5x-34" style="edgeStyle=orthogonalEdgeStyle;rounded=0;orthogonalLoop=1;jettySize=auto;html=1;entryX=0;entryY=0.25;entryDx=0;entryDy=0;" edge="1" parent="1" source="XUTKUhy3H7NS5KbUsb5x-29" target="XUTKUhy3H7NS5KbUsb5x-1">
          <mxGeometry relative="1" as="geometry" />
        </mxCell>
        <mxCell id="XUTKUhy3H7NS5KbUsb5x-29" value="" style="verticalLabelPosition=bottom;verticalAlign=top;html=1;shape=mxgraph.basic.rect;fillColor2=none;strokeWidth=1;size=20;indent=5;fillColor=#f9f7ed;strokeColor=#36393d;" vertex="1" parent="1">
          <mxGeometry x="480" y="570" width="260" height="320" as="geometry" />
        </mxCell>
        <mxCell id="XUTKUhy3H7NS5KbUsb5x-35" style="edgeStyle=orthogonalEdgeStyle;rounded=0;orthogonalLoop=1;jettySize=auto;html=1;entryX=0;entryY=0.5;entryDx=0;entryDy=0;exitX=0.541;exitY=1;exitDx=0;exitDy=0;exitPerimeter=0;" edge="1" parent="1" source="XUTKUhy3H7NS5KbUsb5x-28" target="XUTKUhy3H7NS5KbUsb5x-1">
          <mxGeometry relative="1" as="geometry" />
        </mxCell>
        <mxCell id="XUTKUhy3H7NS5KbUsb5x-28" value="" style="verticalLabelPosition=bottom;verticalAlign=top;html=1;shape=mxgraph.basic.rect;fillColor2=none;strokeWidth=1;size=20;indent=5;fillColor=#f9f7ed;strokeColor=#36393d;" vertex="1" parent="1">
          <mxGeometry x="200" y="570" width="260" height="320" as="geometry" />
        </mxCell>
        <mxCell id="XUTKUhy3H7NS5KbUsb5x-36" style="edgeStyle=orthogonalEdgeStyle;rounded=0;orthogonalLoop=1;jettySize=auto;html=1;entryX=0;entryY=0.75;entryDx=0;entryDy=0;exitX=0.49;exitY=1.003;exitDx=0;exitDy=0;exitPerimeter=0;" edge="1" parent="1" source="XUTKUhy3H7NS5KbUsb5x-27" target="XUTKUhy3H7NS5KbUsb5x-1">
          <mxGeometry relative="1" as="geometry" />
        </mxCell>
        <mxCell id="XUTKUhy3H7NS5KbUsb5x-27" value="" style="verticalLabelPosition=bottom;verticalAlign=top;html=1;shape=mxgraph.basic.rect;fillColor2=none;strokeWidth=1;size=20;indent=5;fillColor=#f9f7ed;strokeColor=#36393d;" vertex="1" parent="1">
          <mxGeometry x="60" y="570" width="120" height="320" as="geometry" />
        </mxCell>
        <mxCell id="Grm8LHgIVp3oz6h8upT6-26" value="" style="rounded=0;whiteSpace=wrap;html=1;fillColor=#f5f5f5;gradientColor=#b3b3b3;strokeColor=#666666;" parent="1" vertex="1">
          <mxGeometry x="685" y="790" width="40" height="10" as="geometry" />
        </mxCell>
        <mxCell id="Grm8LHgIVp3oz6h8upT6-27" value="" style="rounded=0;whiteSpace=wrap;html=1;fillColor=#f5f5f5;gradientColor=#b3b3b3;strokeColor=#666666;" parent="1" vertex="1">
          <mxGeometry x="685" y="820" width="40" height="10" as="geometry" />
        </mxCell>
        <mxCell id="Df29_Mr0B61EmgmB0qkO-9" value="abc" style="shape=note;whiteSpace=wrap;html=1;backgroundOutline=1;darkOpacity=0.05;fillColor=#f5f5f5;strokeColor=#666666;gradientColor=#b3b3b3;" parent="1" vertex="1">
          <mxGeometry x="660" y="940" width="80" height="100" as="geometry" />
        </mxCell>
        <mxCell id="Df29_Mr0B61EmgmB0qkO-11" value="Final&lt;br&gt;Document" style="text;html=1;align=center;verticalAlign=middle;resizable=0;points=[];autosize=1;strokeColor=none;fillColor=none;" parent="1" vertex="1">
          <mxGeometry x="660" y="1040" width="80" height="40" as="geometry" />
        </mxCell>
        <mxCell id="Grm8LHgIVp3oz6h8upT6-28" value="Extensions" style="text;html=1;align=center;verticalAlign=middle;resizable=0;points=[];autosize=1;strokeColor=none;fillColor=none;" parent="1" vertex="1">
          <mxGeometry x="635" y="725" width="80" height="30" as="geometry" />
        </mxCell>
        <mxCell id="Grm8LHgIVp3oz6h8upT6-31" value="Data Provider" style="shape=umlActor;verticalLabelPosition=bottom;verticalAlign=top;html=1;outlineConnect=0;" parent="1" vertex="1">
          <mxGeometry x="105" y="600" width="30" height="60" as="geometry" />
        </mxCell>
        <mxCell id="Grm8LHgIVp3oz6h8upT6-34" value="Customer" style="shape=umlActor;verticalLabelPosition=bottom;verticalAlign=top;html=1;outlineConnect=0;" parent="1" vertex="1">
          <mxGeometry x="310" y="595" width="30" height="60" as="geometry" />
        </mxCell>
        <mxCell id="Grm8LHgIVp3oz6h8upT6-35" value="Software&lt;br&gt;Developer" style="shape=umlActor;verticalLabelPosition=bottom;verticalAlign=top;html=1;outlineConnect=0;" parent="1" vertex="1">
          <mxGeometry x="595" y="595" width="30" height="60" as="geometry" />
        </mxCell>
        <mxCell id="XUTKUhy3H7NS5KbUsb5x-1" value="&lt;b&gt;Underdocx&lt;/b&gt;&lt;div&gt;Template Engine&lt;/div&gt;" style="rounded=1;whiteSpace=wrap;html=1;fillColor=#dae8fc;strokeColor=#6c8ebf;gradientColor=#7ea6e0;" vertex="1" parent="1">
          <mxGeometry x="470" y="960" width="120" height="60" as="geometry" />
        </mxCell>
        <mxCell id="XUTKUhy3H7NS5KbUsb5x-2" value="" style="verticalLabelPosition=bottom;verticalAlign=top;html=1;shape=mxgraph.basic.pie;startAngle=0.5;endAngle=0;fillColor=#dae8fc;gradientColor=#7ea6e0;strokeColor=#6c8ebf;" vertex="1" parent="1">
          <mxGeometry x="630" y="775" width="130" height="70" as="geometry" />
        </mxCell>
        <mxCell id="XUTKUhy3H7NS5KbUsb5x-3" value="x=&quot;abc&quot;" style="shape=cylinder3;whiteSpace=wrap;html=1;boundedLbl=1;backgroundOutline=1;size=15;fillColor=#fff2cc;strokeColor=#d6b656;gradientColor=#ffd966;" vertex="1" parent="1">
          <mxGeometry x="80" y="790" width="80" height="80" as="geometry" />
        </mxCell>
        <mxCell id="XUTKUhy3H7NS5KbUsb5x-4" value="${x}" style="shape=note;whiteSpace=wrap;html=1;backgroundOutline=1;darkOpacity=0.05;fillColor=#f5f5f5;strokeColor=#666666;gradientColor=#b3b3b3;" vertex="1" parent="1">
          <mxGeometry x="230" y="765" width="80" height="100" as="geometry" />
        </mxCell>
        <mxCell id="XUTKUhy3H7NS5KbUsb5x-5" value="Template&lt;div&gt;Documents&lt;/div&gt;" style="text;html=1;align=center;verticalAlign=middle;resizable=0;points=[];autosize=1;strokeColor=none;fillColor=none;" vertex="1" parent="1">
          <mxGeometry x="220" y="715" width="80" height="40" as="geometry" />
        </mxCell>
        <mxCell id="XUTKUhy3H7NS5KbUsb5x-6" value="${x}" style="shape=note;whiteSpace=wrap;html=1;backgroundOutline=1;darkOpacity=0.05;fillColor=#f5f5f5;strokeColor=#666666;gradientColor=#b3b3b3;" vertex="1" parent="1">
          <mxGeometry x="220" y="755" width="80" height="100" as="geometry" />
        </mxCell>
        <mxCell id="XUTKUhy3H7NS5KbUsb5x-7" value="" style="shape=note;whiteSpace=wrap;html=1;backgroundOutline=1;darkOpacity=0.05;fillColor=#f5f5f5;strokeColor=#666666;gradientColor=#b3b3b3;" vertex="1" parent="1">
          <mxGeometry x="360" y="765" width="80" height="100" as="geometry" />
        </mxCell>
        <mxCell id="XUTKUhy3H7NS5KbUsb5x-8" value="" style="shape=note;whiteSpace=wrap;html=1;backgroundOutline=1;darkOpacity=0.05;fillColor=#f5f5f5;strokeColor=#666666;gradientColor=#b3b3b3;" vertex="1" parent="1">
          <mxGeometry x="350" y="755" width="80" height="100" as="geometry" />
        </mxCell>
        <mxCell id="XUTKUhy3H7NS5KbUsb5x-9" value="Master&lt;br&gt;Layouts" style="text;html=1;align=center;verticalAlign=middle;resizable=0;points=[];autosize=1;strokeColor=none;fillColor=none;" vertex="1" parent="1">
          <mxGeometry x="355" y="715" width="70" height="40" as="geometry" />
        </mxCell>
        <mxCell id="XUTKUhy3H7NS5KbUsb5x-10" value="" style="rounded=0;whiteSpace=wrap;html=1;fillColor=#dae8fc;strokeColor=#6c8ebf;" vertex="1" parent="1">
          <mxGeometry x="360" y="765" width="40" height="10" as="geometry" />
        </mxCell>
        <mxCell id="XUTKUhy3H7NS5KbUsb5x-11" value="" style="rounded=0;whiteSpace=wrap;html=1;fillColor=#dae8fc;strokeColor=#6c8ebf;" vertex="1" parent="1">
          <mxGeometry x="360" y="835" width="60" height="10" as="geometry" />
        </mxCell>
        <mxCell id="XUTKUhy3H7NS5KbUsb5x-12" value="" style="shape=note;whiteSpace=wrap;html=1;backgroundOutline=1;darkOpacity=0.05;fillColor=#f5f5f5;strokeColor=#666666;gradientColor=#b3b3b3;" vertex="1" parent="1">
          <mxGeometry x="510" y="765" width="80" height="100" as="geometry" />
        </mxCell>
        <mxCell id="XUTKUhy3H7NS5KbUsb5x-13" value="" style="shape=note;whiteSpace=wrap;html=1;backgroundOutline=1;darkOpacity=0.05;fillColor=#f5f5f5;strokeColor=#666666;gradientColor=#b3b3b3;" vertex="1" parent="1">
          <mxGeometry x="500" y="755" width="80" height="100" as="geometry" />
        </mxCell>
        <mxCell id="XUTKUhy3H7NS5KbUsb5x-14" value="Components" style="text;html=1;align=center;verticalAlign=middle;resizable=0;points=[];autosize=1;strokeColor=none;fillColor=none;" vertex="1" parent="1">
          <mxGeometry x="490" y="725" width="90" height="30" as="geometry" />
        </mxCell>
        <mxCell id="XUTKUhy3H7NS5KbUsb5x-15" value="" style="rounded=0;whiteSpace=wrap;html=1;" vertex="1" parent="1">
          <mxGeometry x="510" y="795" width="20" height="10" as="geometry" />
        </mxCell>
        <mxCell id="XUTKUhy3H7NS5KbUsb5x-16" value="" style="rounded=0;whiteSpace=wrap;html=1;" vertex="1" parent="1">
          <mxGeometry x="530" y="795" width="20" height="10" as="geometry" />
        </mxCell>
        <mxCell id="XUTKUhy3H7NS5KbUsb5x-17" value="" style="rounded=0;whiteSpace=wrap;html=1;" vertex="1" parent="1">
          <mxGeometry x="550" y="795" width="20" height="10" as="geometry" />
        </mxCell>
        <mxCell id="XUTKUhy3H7NS5KbUsb5x-18" value="" style="rounded=0;whiteSpace=wrap;html=1;" vertex="1" parent="1">
          <mxGeometry x="510" y="805" width="20" height="10" as="geometry" />
        </mxCell>
        <mxCell id="XUTKUhy3H7NS5KbUsb5x-19" value="" style="rounded=0;whiteSpace=wrap;html=1;" vertex="1" parent="1">
          <mxGeometry x="530" y="805" width="20" height="10" as="geometry" />
        </mxCell>
        <mxCell id="XUTKUhy3H7NS5KbUsb5x-20" value="" style="rounded=0;whiteSpace=wrap;html=1;" vertex="1" parent="1">
          <mxGeometry x="550" y="805" width="20" height="10" as="geometry" />
        </mxCell>
        <mxCell id="XUTKUhy3H7NS5KbUsb5x-21" value="" style="rounded=0;whiteSpace=wrap;html=1;" vertex="1" parent="1">
          <mxGeometry x="510" y="815" width="20" height="10" as="geometry" />
        </mxCell>
        <mxCell id="XUTKUhy3H7NS5KbUsb5x-22" value="" style="rounded=0;whiteSpace=wrap;html=1;" vertex="1" parent="1">
          <mxGeometry x="530" y="815" width="20" height="10" as="geometry" />
        </mxCell>
        <mxCell id="XUTKUhy3H7NS5KbUsb5x-23" value="" style="rounded=0;whiteSpace=wrap;html=1;" vertex="1" parent="1">
          <mxGeometry x="550" y="815" width="20" height="10" as="geometry" />
        </mxCell>
        <mxCell id="XUTKUhy3H7NS5KbUsb5x-37" style="edgeStyle=orthogonalEdgeStyle;rounded=0;orthogonalLoop=1;jettySize=auto;html=1;entryX=0;entryY=0.5;entryDx=0;entryDy=0;entryPerimeter=0;" edge="1" parent="1" source="XUTKUhy3H7NS5KbUsb5x-1" target="Df29_Mr0B61EmgmB0qkO-9">
          <mxGeometry relative="1" as="geometry" />
        </mxCell>
      </root>
    </mxGraphModel>
  </diagram>
</mxfile>
